<svg width="100" height="59" viewBox="0 0 100 59" fill="none" xmlns="http://www.w3.org/2000/svg">
<g clip-path="url(#clip0_21_3001)">
<path d="M70.9892 0.00524902L64.3757 13.6883L71.992 29.4567L78.611 15.7628L70.9946 0.00524902H70.9892Z" fill="#3767B1"/>
<path opacity="0.8" d="M57.7708 0.00524902H57.7653L29.2679 58.9993H42.5006L70.9928 0.00524902H57.7708Z" fill="#3767B1"/>
<path opacity="0.8" d="M80.4302 11.9897L64.264 45.4611L70.9683 58.999L99.4498 0.0211199C95.4849 0.0195207 91.5995 1.14077 88.2366 3.25699C84.8736 5.37319 82.1687 8.39918 80.4302 11.9897Z" fill="#3767B1"/>
<path d="M56.5512 29.8925L50.007 43.441L57.73 58.9944V58.9997H70.9573L70.9679 58.9782L56.5512 29.8925Z" fill="#3767B1"/>
<path d="M29.2548 58.9994L35.7831 45.4776L19.201 11.9848C17.4193 8.38858 14.6797 5.36289 11.2886 3.24628C7.89759 1.12969 3.98893 0.00566314 0 0L29.2548 58.9994Z" fill="#3767B1"/>
<path d="M28.4474 0L43.3014 29.9351L49.8511 16.3756L47.675 11.9848C45.8913 8.38449 43.1477 5.3561 39.7515 3.23923C36.3553 1.12235 32.4408 0.000675095 28.4474 0Z" fill="#3767B1"/>
</g>
<defs>
<clipPath id="clip0_21_3001">
<rect width="100" height="59" fill="white"/>
</clipPath>
</defs>
</svg>
